<svg width="102" height="102" viewBox="0 0 102 102" fill="none" xmlns="http://www.w3.org/2000/svg">
<path d="M51 91.375C45.4042 91.375 40.1625 90.3125 35.275 88.1875C30.3875 86.0625 26.1198 83.176 22.4719 79.5281C18.824 75.8802 15.9375 71.6125 13.8125 66.725C11.6875 61.8375 10.625 56.5958 10.625 51C10.625 45.4042 11.6875 40.1625 13.8125 35.275C15.9375 30.3875 18.824 26.1198 22.4719 22.4719C26.1198 18.824 30.3875 15.9375 35.275 13.8125C40.1625 11.6875 45.4042 10.625 51 10.625V0L68 17L51 34V23.375C43.35 23.375 36.8333 26.0667 31.45 31.45C26.0667 36.8333 23.375 43.35 23.375 51C23.375 55.675 24.4552 60.0135 26.6156 64.0156C28.776 68.0177 31.6625 71.2583 35.275 73.7375C36.4083 71.7542 38.0906 70.0719 40.3219 68.6906C42.5531 67.3094 45.1208 66.4417 48.025 66.0875C47.8125 64.6 47.5292 63.1125 47.175 61.625C46.8208 60.1375 46.3958 58.7563 45.9 57.4813C45.1208 58.1188 44.2708 58.6146 43.35 58.9688C42.4292 59.3229 41.4375 59.5 40.375 59.5C38.0375 59.5 36.0365 58.6677 34.3719 57.0031C32.7073 55.3385 31.875 53.3375 31.875 51V46.75C31.875 45.5458 31.6802 44.4125 31.2906 43.35C30.901 42.2875 30.3875 41.2958 29.75 40.375C33.2917 40.3042 36.4438 40.6229 39.2063 41.3313C41.6146 41.9688 43.8104 43.0135 45.7938 44.4656C47.7771 45.9177 48.8042 48.0958 48.875 51C48.875 51.6375 48.8219 52.2219 48.7156 52.7531C48.6094 53.2844 48.4146 53.8333 48.1313 54.4C47.2104 53.6917 46.2896 53.0542 45.3688 52.4875C44.4479 51.9208 43.4917 51.425 42.5 51C43.7042 51.9208 45.0854 53.3375 46.6437 55.25C48.2021 57.1625 49.6542 59.4292 51 62.05C52.4167 58.5792 54.1875 55.1615 56.3125 51.7969C58.4375 48.4323 60.9167 45.3333 63.75 42.5C62.1208 43.6333 60.5625 44.8375 59.075 46.1125C57.5875 47.3875 56.1354 48.7333 54.7188 50.15C54.2229 49.3708 53.8333 48.5031 53.55 47.5469C53.2667 46.5906 53.125 45.6167 53.125 44.625C53.125 41.65 54.1521 39.1354 56.2063 37.0812C58.2604 35.0271 60.775 34 63.75 34H68C69.6292 34 70.975 33.7875 72.0375 33.3625C73.1 32.9375 73.9854 32.4417 74.6937 31.875C75.4729 31.2375 76.075 30.5292 76.5 29.75C76.7833 34.4958 76.5354 38.7458 75.7562 42.5C75.1188 45.6875 73.9146 48.6094 72.1438 51.2656C70.3729 53.9219 67.575 55.25 63.75 55.25C62.6875 55.25 61.6781 55.1083 60.7219 54.825C59.7656 54.5417 58.8979 54.1521 58.1188 53.6562C57.6229 55.0021 57.0563 56.7906 56.4188 59.0219C55.7812 61.2531 55.2854 63.6438 54.9313 66.1937C57.6229 66.6896 59.9958 67.6104 62.05 68.9563C64.1042 70.3021 65.6625 71.8958 66.725 73.7375C70.3375 71.2583 73.224 68.0354 75.3844 64.0687C77.5448 60.1021 78.625 55.7458 78.625 51H91.375C91.375 56.5958 90.3125 61.8375 88.1875 66.725C86.0625 71.6125 83.176 75.8802 79.5281 79.5281C75.8802 83.176 71.6125 86.0625 66.725 88.1875C61.8375 90.3125 56.5958 91.375 51 91.375Z" fill="#739A76"/>
</svg>
