<svg width="102" height="102" viewBox="0 0 102 102" fill="none" xmlns="http://www.w3.org/2000/svg">
<path d="M46.75 89.25V55.3563C42.2167 55.3563 37.8604 54.4885 33.6813 52.7531C29.5021 51.0177 25.8188 48.5563 22.6313 45.3688C19.4438 42.1813 17 38.4979 15.3 34.3188C13.6 30.1396 12.75 25.7833 12.75 21.25V12.75H21.25C25.7125 12.75 30.0333 13.6177 34.2125 15.3531C38.3917 17.0885 42.075 19.55 45.2625 22.7375C47.4583 24.9333 49.2823 27.3417 50.7344 29.9625C52.1865 32.5833 53.3021 35.3813 54.0813 38.3563C54.4354 37.8604 54.825 37.3823 55.25 36.9219C55.675 36.4615 56.1354 35.9833 56.6313 35.4875C59.8188 32.3 63.5021 29.8385 67.6813 28.1031C71.8604 26.3677 76.2167 25.5 80.75 25.5H89.25V34C89.25 38.5333 88.3823 42.8896 86.6469 47.0688C84.9115 51.2479 82.45 54.9313 79.2625 58.1188C76.075 61.3063 72.4094 63.75 68.2656 65.45C64.1219 67.15 59.7833 68 55.25 68V89.25H46.75ZM46.75 46.75C46.75 43.35 46.0948 40.1094 44.7844 37.0281C43.474 33.9469 41.6146 31.2021 39.2063 28.7938C36.7979 26.3854 34.0531 24.526 30.9719 23.2156C27.8906 21.9052 24.65 21.25 21.25 21.25C21.25 24.65 21.8875 27.9083 23.1625 31.025C24.4375 34.1417 26.2792 36.9042 28.6875 39.3125C31.0958 41.7208 33.8583 43.5625 36.975 44.8375C40.0917 46.1125 43.35 46.75 46.75 46.75ZM55.25 59.5C58.65 59.5 61.8906 58.8625 64.9719 57.5875C68.0531 56.3125 70.7979 54.4708 73.2063 52.0625C75.6146 49.6542 77.474 46.8917 78.7844 43.775C80.0948 40.6583 80.75 37.4 80.75 34C77.35 34 74.0917 34.6552 70.975 35.9656C67.8583 37.276 65.0958 39.1354 62.6875 41.5438C60.2792 43.9521 58.4375 46.6969 57.1625 49.7781C55.8875 52.8594 55.25 56.1 55.25 59.5Z" fill="#739A76"/>
</svg>
